<?xml version="1.0" encoding="UTF-8"?>
<svg width="600" height="400" viewBox="0 0 600 400" fill="none" xmlns="http://www.w3.org/2000/svg">
    <!-- Background shapes -->
    <circle cx="300" cy="200" r="150" fill="#F3E8FF" />
    <circle cx="300" cy="200" r="100" fill="#E9D5FF" />
    
    <!-- Stylized form/document -->
    <rect x="200" y="120" width="200" height="180" rx="10" fill="#8B5CF6" />
    <rect x="210" y="130" width="180" height="160" rx="5" fill="white" />
    
    <!-- Form elements -->
    <rect x="230" y="150" width="140" height="15" rx="4" fill="#E9D5FF" />
    <rect x="230" y="175" width="140" height="15" rx="4" fill="#E9D5FF" />
    <rect x="230" y="200" width="140" height="15" rx="4" fill="#E9D5FF" />
    <rect x="230" y="235" width="80" height="25" rx="4" fill="#7C3AED" />
    
    <!-- Decorative elements -->
    <circle cx="180" cy="140" r="20" fill="#7C3AED" />
    <circle cx="420" cy="260" r="15" fill="#7C3AED" />
    <circle cx="150" cy="280" r="10" fill="#7C3AED" />
    <circle cx="450" cy="160" r="12" fill="#7C3AED" />
    
    <!-- Abstract shapes -->
    <path d="M150 150 Q 180 180, 210 150" stroke="#8B5CF6" stroke-width="4" fill="none" />
    <path d="M390 250 Q 420 280, 450 250" stroke="#8B5CF6" stroke-width="4" fill="none" />
    <path d="M180 320 Q 210 350, 240 320" stroke="#8B5CF6" stroke-width="4" fill="none" />
</svg>
